<svg xmlns="http://www.w3.org/2000/svg" width="71.057" height="71.057" viewBox="0 0 71.057 71.057">
  <path id="Icon_ionic-logo-game-controller-a" data-name="Icon ionic-logo-game-controller-a" d="M53,10.266H18.905C9.7,10.266,2.25,17.111,2.25,26.725a16.368,16.368,0,0,0,16.655,16.64H52.984a16.368,16.368,0,0,0,16.655-16.64C69.654,17.111,62.206,10.266,53,10.266ZM27.527,28.426a.821.821,0,0,1-.782.8H21.508V34.5a.854.854,0,0,1-.873.737h-3.22a.694.694,0,0,1-.722-.677V29.223H11.413a.854.854,0,0,1-.737-.873v-3.22a.694.694,0,0,1,.677-.722h5.341V19.173a.732.732,0,0,1,.692-.782h3.325a.821.821,0,0,1,.8.782v5.236h5.236a.732.732,0,0,1,.782.692ZM45.551,29.75a2.889,2.889,0,1,1,2.934-2.889A2.919,2.919,0,0,1,45.551,29.75Zm6.394,6.289a2.882,2.882,0,1,1,2.934-2.874A2.906,2.906,0,0,1,51.945,36.039Zm0-12.593a2.882,2.882,0,1,1,2.934-2.874A2.916,2.916,0,0,1,51.945,23.446Zm6.409,6.3a2.889,2.889,0,1,1,2.934-2.889A2.906,2.906,0,0,1,58.355,29.75Z" transform="translate(-8.85 41.983) rotate(-45)"/>
</svg>
