<svg xmlns="http://www.w3.org/2000/svg" width="37.186" height="38.735" viewBox="0 0 37.186 38.735">
  <path id="Icon_material-add-shopping-cart" data-name="Icon material-add-shopping-cart" d="M20.24,16.256H16.551V10.723H11.018V7.034h5.534V1.5H20.24V7.034h5.534v3.689H20.24Zm7.378,16.6a3.689,3.689,0,1,1-3.689,3.689A3.684,3.684,0,0,1,27.619,32.857Zm-18.445,0a3.689,3.689,0,1,1-3.689,3.689A3.684,3.684,0,0,1,9.173,32.857ZM27.3,26.862l-.055-.221-1.66-3.007H11.848a3.672,3.672,0,0,1-3.228-1.9L1.5,8.8,4.709,7.034h.018l2.029,3.689,5.091,9.223H24.8l.24-.5,4.132-8.725L30.92,7.034l1.734-3.689h6.032V7.034H35l-6.64,14,2.49,4.519a3.566,3.566,0,0,1,.461,1.771,3.7,3.7,0,0,1-3.689,3.689H5.484V27.323h21.36A.469.469,0,0,0,27.3,26.862Z" transform="translate(-1.5 -1.5)" fill="#f5f9ff"/>
</svg>
