<svg xmlns="http://www.w3.org/2000/svg" width="43.577" height="38.735" viewBox="0 0 43.577 38.735">
  <path id="Icon_awesome-shopping-cart" data-name="Icon awesome-shopping-cart" d="M3.622,22.8.046,7.06A1.816,1.816,0,0,1,1.816,4.842H31.532l.693-3.39A1.816,1.816,0,0,1,34,0h7.757a1.816,1.816,0,0,1,1.816,1.816v1.21a1.816,1.816,0,0,1-1.816,1.816H36.474L31.16,30.824a4.237,4.237,0,1,1-5.072.648H10.227a4.236,4.236,0,1,1-4.811-.787L5,28.848A1.816,1.816,0,0,1,6.768,26.63H27.075l.5-2.421H5.393A1.816,1.816,0,0,1,3.622,22.8Z" fill="#f5f9ff"/>
</svg>
