<svg xmlns="http://www.w3.org/2000/svg" width="322.143" height="337.737" viewBox="0 0 322.143 337.737">
  <g id="Group_2" data-name="Group 2" transform="translate(-728.856 -264.813)">
    <path id="Intersection_1" data-name="Intersection 1" d="M162.759,343.579c40.42-10.642,82.939-37.591,116.654-73.94,41.759-45.021,64.467-97.428,60.745-140.189-1.93-22.16-11.156-40.1-26.683-51.89-13.317-10.109-30.281-15.234-50.421-15.234-15.015,0-31.185,2.89-48.063,8.59,26.435-12.9,53.463-19.711,78.162-19.711a114.871,114.871,0,0,1,33.085,4.616,88.66,88.66,0,0,1,28.211,14.169c19.056,14.466,30.341,36.042,32.636,62.4a129.128,129.128,0,0,1-1.582,32.974,170.294,170.294,0,0,1-10.107,34.9,212.25,212.25,0,0,1-18.442,35.276,248.438,248.438,0,0,1-26.592,34.1,260.552,260.552,0,0,1-35.573,31.927,242.347,242.347,0,0,1-38.6,23.5c-26.28,12.744-53.147,19.48-77.694,19.48A125.463,125.463,0,0,1,162.759,343.579ZM77.346,281.021a55.6,55.6,0,0,1-10-21.82,89.9,89.9,0,0,1-1.507-28.3,153.26,153.26,0,0,1,7.341-33.7,243.285,243.285,0,0,1,16.544-38.03A334.952,334.952,0,0,1,116.948,116.6a392.3,392.3,0,0,1,33.6-39.169c24.063-24.613,50.953-45.8,77.762-61.284,5.875-3.392,11.79-6.531,17.581-9.33C205.624,39.018,169,82.831,145.418,127.019c-29,54.337-34.854,101.554-15.656,126.308,10.144,13.078,26.869,18.731,48.367,16.347,18.219-2.02,38.6-9.479,60.584-22.171a318.471,318.471,0,0,0,49.249-35.628c-24.155,24.77-51.166,46.084-78.109,61.64a245.066,245.066,0,0,1-37.8,17.944,154.939,154.939,0,0,1-35.957,8.848,106.277,106.277,0,0,1-11.7.671C103.68,300.978,87.553,294.179,77.346,281.021Z" transform="translate(663.483 258)" fill="#f5f9ff"/>
    <ellipse id="Ellipse_1" data-name="Ellipse 1" cx="61.559" cy="42.401" rx="61.559" ry="42.401" transform="translate(812.979 437.258) rotate(-45)" fill="#fff"/>
  </g>
</svg>
